# Blender v2.79 (sub 0) OBJ File: 'chili.blend'
# www.blender.org
mtllib chili.mtl
o chili_Cube
v 2.319116 1.688349 -0.785368
v 1.922814 1.037512 -0.857116
v 1.558066 1.431455 -1.401130
v 1.942280 2.129298 -1.316133
v 2.319116 1.688349 0.785368
v 1.942280 2.129297 1.316134
v 1.558066 1.431455 1.401131
v 1.922813 1.037512 0.857116
v 0.290713 -0.076620 1.542319
v -0.315572 -0.536967 1.498393
v -0.009331 -0.981627 0.959329
v 0.604986 -0.530785 1.008313
v 0.290713 -0.076620 -1.542319
v 0.604986 -0.530785 -1.008314
v -0.009331 -0.981627 -0.959330
v -0.315572 -0.536966 -1.498394
v 0.885134 3.257414 -1.328952
v 0.365920 2.707905 -1.429357
v -0.005353 3.103555 -0.895549
v 0.509986 3.664866 -0.780056
v 0.885133 3.257413 1.328954
v 0.509985 3.664865 0.780057
v -0.005354 3.103555 0.895550
v 0.365919 2.707904 1.429358
v -1.416890 1.029585 1.495476
v -0.858111 1.556899 1.545863
v -1.178152 2.000815 1.002430
v -1.724734 1.469880 0.956258
v -1.416890 1.029585 -1.495476
v -1.724734 1.469880 -0.956258
v -1.178152 2.000815 -1.002430
v -0.858110 1.556900 -1.545863
v 2.844681 3.385826 -0.479456
v 2.713910 2.635131 -0.643213
v 2.289659 2.964736 -1.177488
v 2.366802 3.837071 -0.966108
v 2.844681 3.385826 0.479457
v 2.366802 3.837070 0.966109
v 2.289659 2.964736 1.177489
v 2.713910 2.635131 0.643213
v 1.731355 4.310671 -0.935528
v 1.287119 3.764695 -1.217686
v 0.856317 4.102664 -0.669431
v 1.359860 4.674580 -0.293656
v 1.731354 4.310671 0.935529
v 1.359860 4.674579 0.293657
v 0.856316 4.102664 0.669432
v 1.287119 3.764694 1.217687
v -2.236071 -1.821820 0.473424
v -1.505800 -1.604223 0.652488
v -1.779768 -1.145972 1.194094
v -2.512743 -1.356257 1.009734
v -2.236071 -1.821820 -0.473426
v -2.512743 -1.356257 -1.009736
v -1.779768 -1.145972 -1.194095
v -1.505800 -1.604223 -0.652489
v -2.992557 -0.538005 1.019999
v -2.448451 -0.005322 1.209364
v -2.728618 0.462502 0.673354
v -3.267471 -0.076275 0.478295
v -2.992556 -0.538005 -1.020000
v -3.267471 -0.076275 -0.478296
v -2.728618 0.462502 -0.673355
v -2.448450 -0.005322 -1.209365
v -3.521682 -2.047157 0.141025
v -2.770078 -1.921712 0.314979
v -3.046066 -1.456354 0.854517
v -3.841707 -1.570515 0.668850
v -3.521681 -2.047157 -0.141026
v -3.841707 -1.570515 -0.668851
v -3.046066 -1.456354 -0.854519
v -2.770078 -1.921712 -0.314980
v -3.960721 -1.371198 0.658282
v -3.374324 -0.918592 0.856099
v -3.647758 -0.455134 0.318023
v -4.252945 -0.918160 0.106992
v -3.960721 -1.371198 -0.658284
v -4.252945 -0.918160 -0.106993
v -3.647758 -0.455134 -0.318024
v -3.374324 -0.918592 -0.856100
v -4.606411 -2.175289 0.168936
v -4.168392 -2.142146 0.025000
v -4.380840 -1.648504 0.553800
v -4.751217 -1.877891 0.470519
v -4.606411 -2.175289 -0.168938
v -4.751217 -1.877891 -0.470520
v -4.380840 -1.648504 -0.553801
v -4.168392 -2.142146 -0.025002
v -4.873493 -1.598983 0.470510
v -4.395030 -1.621278 0.563719
v -4.608243 -1.122849 0.012337
v -5.003061 -1.315402 0.151815
v -4.873493 -1.598983 -0.470511
v -5.003061 -1.315402 -0.151816
v -4.608243 -1.122849 -0.012338
v -4.395030 -1.621278 -0.563720
v -5.248579 -2.178633 0.049906
v -5.338518 -1.880934 0.361450
v -5.616683 -1.938929 0.021564
v -5.248579 -2.178633 -0.049907
v -5.616683 -1.938929 -0.021566
v -5.338518 -1.880934 -0.361451
v -5.373232 -1.801406 0.361622
v -5.463886 -1.502061 0.051220
v -5.629828 -1.908782 0.021564
v -5.373232 -1.801406 -0.361623
v -5.629828 -1.908782 -0.021566
v -5.463886 -1.502061 -0.051222
v 2.967619 4.792602 -0.084970
v 2.811524 4.046761 -0.255476
v 2.332621 4.260637 -0.765799
v 2.484729 5.031644 -0.623785
v 2.967619 4.792602 0.084972
v 2.484729 5.031643 0.623788
v 2.332621 4.260636 0.765801
v 2.811524 4.046761 0.255477
v 2.332659 5.107507 -0.623785
v 1.917804 4.511437 -0.841330
v 1.405683 4.721408 -0.252088
v 1.847590 5.342184 -0.084970
v 2.332659 5.107507 0.623788
v 1.847590 5.342184 0.084972
v 1.405683 4.721408 0.252090
v 1.917803 4.511436 0.841332
v 3.074479 5.268121 -0.097210
v 2.925369 4.707908 -0.084970
v 2.443219 4.948438 -0.623785
v 2.707667 5.451113 -0.507132
v 3.074479 5.268121 0.097213
v 2.707667 5.451112 0.507135
v 2.443220 4.948437 0.623787
v 2.925369 4.707908 0.084972
v 2.499658 5.554882 -0.507132
v 2.291150 5.024301 -0.623785
v 1.809001 5.264830 -0.084970
v 2.166880 5.720894 -0.135244
v 2.533691 5.537903 0.507135
v 2.166880 5.720894 0.097213
v 1.809001 5.264830 0.084972
v 2.291150 5.024300 0.623788
v 3.212751 5.799768 -0.076553
v 3.075852 5.291968 -0.087793
v 2.709001 5.474269 -0.497988
v 2.923743 5.944586 -0.399977
v 3.212751 5.799768 0.076556
v 2.923743 5.944586 0.399980
v 2.709001 5.474269 0.497991
v 3.075852 5.291968 0.087796
v 2.786661 6.012973 -0.399977
v 2.517356 5.569875 -0.497988
v 2.184020 5.735415 -0.126389
v 2.497367 6.157807 -0.076818
v 2.786660 6.012972 0.399980
v 2.497367 6.157806 0.076822
v 2.184020 5.735414 0.088358
v 2.551390 5.552896 0.497991
v 3.466825 6.437248 -0.090649
v 3.316939 6.005315 -0.083539
v 3.028656 6.151564 -0.407011
v 3.168374 6.592739 -0.413938
v 3.466825 6.437248 0.090654
v 3.168374 6.592739 0.413943
v 3.028656 6.151564 0.407015
v 3.316939 6.005315 0.083542
v 3.024456 6.664535 -0.413938
v 2.878983 6.226231 -0.407011
v 2.589019 6.369514 -0.083801
v 2.721878 6.806985 -0.090649
v 3.024456 6.664535 0.413943
v 2.721878 6.806984 0.090654
v 2.589019 6.369514 0.083805
v 2.878983 6.226230 0.407015
v 3.706951 7.628645 -0.090649
v 3.391258 7.698586 -0.413938
v 3.461313 8.014254 -0.090648
v 3.706951 7.628645 0.090654
v 3.461313 8.014253 0.090655
v 3.391258 7.698585 0.413943
v 3.221369 7.739714 -0.413938
v 2.905035 7.807052 -0.090648
v 3.288448 8.056102 -0.090648
v 3.221369 7.739714 0.413944
v 3.288448 8.056103 0.090655
v 2.905035 7.807052 0.090654
vn -0.1900 0.3213 -0.9277
vn 0.3920 -0.1747 -0.9032
vn 0.2779 -0.2848 -0.9174
vn -0.2549 0.2768 -0.9265
vn -0.6811 0.6222 0.3860
vn -0.6811 0.6222 -0.3860
vn -0.7131 0.5965 -0.3684
vn -0.7131 0.5965 0.3684
vn -0.6205 0.6760 -0.3974
vn -0.6318 0.6672 -0.3945
vn -0.6318 0.6672 0.3945
vn -0.6205 0.6760 0.3974
vn -0.1740 0.3388 0.9246
vn 0.4380 -0.0847 0.8949
vn 0.5040 0.0466 0.8624
vn -0.1310 0.4205 0.8977
vn -0.6550 0.6460 -0.3920
vn -0.6550 0.6460 0.3920
vn -0.6244 0.6785 0.3869
vn -0.6244 0.6785 -0.3869
vn 0.4380 -0.0847 -0.8949
vn -0.1740 0.3388 -0.9246
vn -0.1310 0.4205 -0.8977
vn 0.5040 0.0466 -0.8624
vn -0.5928 0.7305 -0.3390
vn -0.5928 0.7305 0.3390
vn -0.6569 0.6860 0.3128
vn -0.6569 0.6860 -0.3128
vn 0.4165 -0.8244 -0.3832
vn 0.4165 -0.8244 0.3832
vn 0.2403 -0.9000 0.3635
vn 0.2403 -0.9000 -0.3635
vn 0.3920 -0.1747 0.9032
vn -0.1900 0.3213 0.9277
vn -0.2549 0.2768 0.9265
vn 0.2779 -0.2848 0.9174
vn 0.7725 -0.5153 -0.3710
vn 0.7725 -0.5153 0.3710
vn 0.6289 -0.6729 0.3894
vn 0.6289 -0.6729 -0.3894
vn 0.0699 -0.9348 -0.3482
vn 0.0699 -0.9348 0.3482
vn 0.1108 -0.9400 0.3225
vn 0.1108 -0.9400 -0.3225
vn 0.1036 -0.4078 0.9071
vn -0.3585 0.2037 0.9110
vn -0.4276 0.1515 0.8911
vn -0.0367 -0.4655 0.8842
vn -0.3585 0.2037 -0.9110
vn 0.1036 -0.4078 -0.9071
vn -0.0367 -0.4655 -0.8842
vn -0.4276 0.1515 -0.8911
vn 0.9431 0.0307 0.3309
vn 0.9431 0.0307 -0.3309
vn 0.9418 0.0416 -0.3336
vn 0.9418 0.0416 0.3336
vn -0.3906 0.1974 -0.8991
vn -0.1237 -0.4642 -0.8770
vn -0.0515 -0.3984 -0.9157
vn -0.2640 0.2229 -0.9384
vn -0.4657 0.1300 -0.8753
vn -0.1162 -0.4889 -0.8645
vn -0.1468 -0.4919 -0.8582
vn -0.4540 0.1372 -0.8803
vn -0.7253 0.5870 0.3596
vn -0.7253 0.5870 -0.3596
vn -0.6913 0.6243 -0.3637
vn -0.6913 0.6243 0.3637
vn -0.1162 -0.4889 0.8645
vn -0.4657 0.1300 0.8753
vn -0.4540 0.1372 0.8803
vn -0.1468 -0.4919 0.8582
vn -0.3417 0.8351 0.4310
vn -0.3417 0.8351 -0.4310
vn -0.6803 0.6652 -0.3076
vn -0.6803 0.6652 0.3076
vn -0.5880 0.7183 0.3718
vn -0.5880 0.7183 -0.3718
vn -0.4321 0.8412 -0.3250
vn -0.4321 0.8412 0.3250
vn -0.1237 -0.4642 0.8770
vn -0.3906 0.1974 0.8991
vn -0.2640 0.2229 0.9384
vn -0.0515 -0.3984 0.9157
vn 0.0859 -0.8966 -0.4343
vn 0.0859 -0.8966 0.4343
vn -0.2812 -0.9108 0.3023
vn -0.2812 -0.9108 -0.3023
vn -0.0374 -0.4720 0.8808
vn -0.2243 0.3682 0.9023
vn -0.5625 0.1324 0.8161
vn -0.3818 -0.4482 0.8083
vn -0.7445 -0.5973 0.2980
vn -0.9540 -0.0366 0.2973
vn -0.9540 -0.0366 -0.2973
vn -0.7445 -0.5973 -0.2980
vn -0.2243 0.3682 -0.9023
vn -0.0374 -0.4720 -0.8808
vn -0.3818 -0.4482 -0.8083
vn -0.5625 0.1324 -0.8161
vn 0.5339 0.2474 -0.8085
vn -0.0775 0.5417 -0.8369
vn -0.0923 0.4906 -0.8665
vn 0.5307 0.2174 -0.8191
vn 0.1328 -0.9264 -0.3523
vn 0.1328 -0.9264 0.3523
vn 0.0751 -0.9377 0.3392
vn 0.0751 -0.9377 -0.3392
vn -0.0775 0.5417 0.8369
vn 0.5339 0.2474 0.8085
vn 0.5307 0.2174 0.8191
vn -0.0923 0.4905 0.8665
vn 0.8472 -0.3843 -0.3667
vn 0.8472 -0.3843 0.3667
vn 0.9129 -0.2011 -0.3551
vn 0.9129 -0.2011 0.3551
vn 0.5962 0.7987 -0.0807
vn 0.5546 0.8242 -0.1144
vn 0.2532 0.9573 -0.1395
vn 0.2532 0.9573 0.1395
vn 0.5402 0.8409 -0.0327
vn 0.5402 0.8409 0.0327
vn 0.2002 0.9536 0.2250
vn 0.2002 0.9536 -0.2250
vn 0.6413 0.7335 -0.2250
vn 0.5929 0.7440 0.3081
vn -0.6309 0.6654 -0.3989
vn -0.6238 0.6777 0.3894
vn -0.6347 0.6994 0.3287
vn -0.6234 0.7071 -0.3335
vn 0.6911 0.6950 0.1984
vn 0.2195 0.9440 0.2465
vn 0.9166 -0.0908 0.3894
vn 0.9166 -0.0908 -0.3894
vn 0.9422 -0.0764 -0.3262
vn 0.9422 -0.0764 0.3262
vn 0.5962 0.7987 0.0807
vn 0.5546 0.8242 0.1144
vn 0.2195 0.9439 -0.2465
vn 0.6222 0.7431 -0.2465
vn 0.8914 -0.2462 0.3804
vn 0.8914 -0.2462 -0.3804
vn 0.9274 0.1527 -0.3415
vn 0.9274 0.1527 0.3415
vn 0.4948 0.1196 -0.8607
vn -0.2169 0.4588 -0.8616
vn -0.1371 0.4674 -0.8733
vn 0.4498 0.1660 -0.8776
vn 0.8619 -0.3300 0.3850
vn 0.8619 -0.3300 -0.3850
vn 0.8486 -0.3678 -0.3802
vn 0.8486 -0.3678 0.3802
vn -0.2020 0.4673 0.8607
vn 0.4948 0.1196 0.8607
vn 0.4498 0.1660 0.8776
vn -0.1380 0.4548 0.8798
vn -0.8954 0.2147 -0.3901
vn -0.8954 0.2147 0.3901
vn -0.7924 0.5051 0.3418
vn -0.7924 0.5051 -0.3418
vn -0.3150 0.2305 0.9207
vn 0.3820 -0.1015 0.9185
vn 0.3579 -0.1704 0.9181
vn -0.3567 0.1120 0.9275
vn -0.7944 0.4748 -0.3787
vn -0.7986 0.4608 0.3871
vn -0.8670 0.3103 0.3898
vn -0.8670 0.3103 -0.3898
vn 0.3820 -0.1015 -0.9185
vn -0.3008 0.2399 -0.9230
vn -0.3567 0.1120 -0.9275
vn 0.3579 -0.1704 -0.9181
vn 0.3764 -0.1047 -0.9205
vn -0.3573 0.0843 -0.9301
vn -0.2622 0.4038 -0.8765
vn 0.4081 0.2600 -0.8751
vn 0.5304 0.7759 -0.3415
vn -0.1393 0.9294 -0.3418
vn -0.1393 0.9294 0.3418
vn 0.5304 0.7759 0.3415
vn -0.3573 0.0843 0.9301
vn 0.3764 -0.1047 0.9205
vn 0.4081 0.2600 0.8751
vn -0.2622 0.4038 0.8765
usemtl Material
s 1
f 18//1 3//2 13//3 32//4
f 28//5 30//6 63//7 59//8
f 19//9 31//10 27//11 23//12
f 21//13 6//14 39//15 48//16
f 20//17 22//18 47//19 43//20
f 4//21 17//22 42//23 35//24
f 44//25 46//26 123//27 119//28
f 15//29 11//30 50//31 56//32
f 7//33 24//34 26//35 9//36
f 2//37 8//38 12//39 14//40
f 69//41 65//42 82//43 88//44
f 10//45 25//46 58//47 51//48
f 29//49 16//50 55//51 64//52
f 37//53 33//54 110//55 116//56
f 77//57 70//58 87//59 96//60
f 61//61 54//62 71//63 80//64
f 60//65 62//66 79//67 75//68
f 52//69 57//70 74//71 67//72
f 92//73 94//74 108//75 104//76
f 76//77 78//78 95//79 91//80
f 68//81 73//82 90//83 83//84
f 85//85 81//86 97//87 100//88
f 84//89 89//90 103//91 98//92
f 99//93 105//94 107//95 101//96
f 93//97 86//98 102//99 106//100
f 36//101 41//102 118//103 111//104
f 53//105 49//106 66//107 72//108
f 45//109 38//110 115//111 124//112
f 1//113 2//37 3//2 4//21
f 5//114 6//14 7//33 8//38
f 9//36 10//45 11//30 12//39
f 13//3 14//40 15//29 16//50
f 17//22 18//1 19//9 20//17
f 21//13 22//18 23//12 24//34
f 25//46 26//35 27//11 28//5
f 29//49 30//6 31//10 32//4
f 33//54 34//115 35//24 36//101
f 37//53 38//110 39//15 40//116
f 41//102 42//23 43//20 44//25
f 45//109 46//26 47//19 48//16
f 49//106 50//31 51//48 52//69
f 53//105 54//62 55//51 56//32
f 57//70 58//47 59//8 60//65
f 61//61 62//66 63//7 64//52
f 65//42 66//107 67//72 68//81
f 69//41 70//58 71//63 72//108
f 73//82 74//71 75//68 76//77
f 77//57 78//78 79//67 80//64
f 81//86 82//43 83//84 84//89
f 85//85 86//98 87//59 88//44
f 89//90 90//83 91//80 92//73
f 93//97 94//74 95//79 96//60
f 97//87 98//92 99//93
f 100//88 101//96 102//99
f 103//91 104//76 105//94
f 106//100 107//95 108//75
f 1//113 5//114 8//38 2//37
f 2//37 14//40 13//3 3//2
f 3//2 18//1 17//22 4//21
f 7//33 9//36 12//39 8//38
f 6//14 21//13 24//34 7//33
f 11//30 15//29 14//40 12//39
f 9//36 26//35 25//46 10//45
f 16//50 29//49 32//4 13//3
f 19//9 23//12 22//18 20//17
f 18//1 32//4 31//10 19//9
f 23//12 27//11 26//35 24//34
f 27//11 31//10 30//6 28//5
f 33//54 37//53 40//116 34//115
f 35//24 42//23 41//102 36//101
f 38//110 45//109 48//16 39//15
f 43//20 47//19 46//26 44//25
f 21//13 48//16 47//19 22//18
f 42//23 17//22 20//17 43//20
f 5//114 40//116 39//15 6//14
f 34//115 1//113 4//21 35//24
f 49//106 53//105 56//32 50//31
f 51//48 58//47 57//70 52//69
f 54//62 61//61 64//52 55//51
f 59//8 63//7 62//66 60//65
f 15//29 56//32 55//51 16//50
f 63//7 30//6 29//49 64//52
f 10//45 51//48 50//31 11//30
f 28//5 59//8 58//47 25//46
f 65//42 69//41 72//108 66//107
f 67//72 74//71 73//82 68//81
f 70//58 77//57 80//64 71//63
f 75//68 79//67 78//78 76//77
f 61//61 80//64 79//67 62//66
f 74//71 57//70 60//65 75//68
f 66//107 49//106 52//69 67//72
f 53//105 72//108 71//63 54//62
f 81//86 85//85 88//44 82//43
f 83//84 90//83 89//90 84//89
f 86//98 93//97 96//60 87//59
f 91//80 95//79 94//74 92//73
f 76//77 91//80 90//83 73//82
f 82//43 65//42 68//81 83//84
f 69//41 88//44 87//59 70//58
f 95//79 78//78 77//57 96//60
f 99//93 101//96 100//88 97//87
f 98//92 103//91 105//94 99//93
f 101//96 107//95 106//100 102//99
f 104//76 108//75 107//95 105//94
f 85//85 100//88 102//99 86//98
f 108//75 94//74 93//97 106//100
f 84//89 98//92 97//87 81//86
f 103//91 89//90 92//73 104//76
f 111//104 118//103 117//117 112//118
f 119//28 123//27 122//119 120//120
f 37//53 116//56 115//111 38//110
f 123//27 46//26 45//109 124//112
f 36//101 111//104 110//55 33//54
f 118//103 41//102 44//25 119//28
f 5//114 1//113 34//115 40//116
usemtl Material.001
f 113//121 109//122 126//123 132//124
f 120//120 122//119 139//125 135//126
f 136//127 138//128 155//129 151//130
f 112//118 117//117 134//131 127//132
f 129//133 125//134 142//135 148//136
f 121//137 114//138 131//139 140//140
f 161//141 157//142 173//143 176//144
f 128//145 133//146 150//147 143//148
f 145//149 141//150 158//151 164//152
f 137//153 130//154 147//155 156//156
f 168//157 170//158 184//159 180//160
f 153//161 146//162 163//163 172//164
f 152//165 154//166 171//167 167//168
f 144//169 149//170 166//171 159//172
f 160//173 165//174 179//175 174//176
f 175//177 181//178 183//179 177//180
f 169//181 162//182 178//183 182//184
f 109//122 110//55 111//104 112//118
f 113//121 114//138 115//111 116//56
f 117//117 118//103 119//28 120//120
f 121//137 122//119 123//27 124//112
f 125//134 126//123 127//132 128//145
f 129//133 130//154 131//139 132//124
f 133//146 134//131 135//126 136//127
f 137//153 138//128 139//125 140//140
f 141//150 142//135 143//148 144//169
f 145//149 146//162 147//155 148//136
f 149//170 150//147 151//130 152//165
f 153//161 154//166 155//129 156//156
f 157//142 158//151 159//172 160//173
f 161//141 162//182 163//163 164//152
f 165//174 166//171 167//168 168//157
f 169//181 170//158 171//167 172//164
f 173//143 174//176 175//177
f 176//144 177//180 178//183
f 179//175 180//160 181//178
f 182//184 183//179 184//159
f 109//122 113//121 116//56 110//55
f 114//138 121//137 124//112 115//111
f 125//134 129//133 132//124 126//123
f 127//132 134//131 133//146 128//145
f 130//154 137//153 140//140 131//139
f 135//126 139//125 138//128 136//127
f 113//121 132//124 131//139 114//138
f 139//125 122//119 121//137 140//140
f 112//118 127//132 126//123 109//122
f 134//131 117//117 120//120 135//126
f 141//150 145//149 148//136 142//135
f 143//148 150//147 149//170 144//169
f 146//162 153//161 156//156 147//155
f 151//130 155//129 154//166 152//165
f 129//133 148//136 147//155 130//154
f 155//129 138//128 137//153 156//156
f 128//145 143//148 142//135 125//134
f 150//147 133//146 136//127 151//130
f 157//142 161//141 164//152 158//151
f 159//172 166//171 165//174 160//173
f 162//182 169//181 172//164 163//163
f 167//168 171//167 170//158 168//157
f 153//161 172//164 171//167 154//166
f 166//171 149//170 152//165 167//168
f 158//151 141//150 144//169 159//172
f 145//149 164//152 163//163 146//162
f 175//177 177//180 176//144 173//143
f 174//176 179//175 181//178 175//177
f 177//180 183//179 182//184 178//183
f 180//160 184//159 183//179 181//178
f 161//141 176//144 178//183 162//182
f 184//159 170//158 169//181 182//184
f 160//173 174//176 173//143 157//142
f 179//175 165//174 168//157 180//160
