<svg xmlns="http://www.w3.org/2000/svg" viewBox="0 0 1536 1536"><title>background_art</title><g id="bglayer_1"><polygon points="-4 512 252 256 508 512 636 384 764 512 1020 256 1148 384 1276 256 1404 384 1532 512 1532 1536 -4 1536 -4 512" fill="#d9e021"/><polygon points="252.5 256.5 379.5 1087.5 508.5 512.5 252.5 256.5" fill="#fcee21"/><polygon points="636.5 384.5 827.5 1471.5 764.5 512.5 636.5 384.5" fill="#8cc63f"/><polygon points="1020.5 256.5 827.5 1471.5 764.5 512.5 1020.5 256.5" fill="#fcee21"/><polygon points="1020.5 256.5 1211.5 1215.5 1148.5 384.5 1020.5 256.5" fill="#8cc63f"/><polygon points="1276.5 256.5 1211.5 1215.5 1148.5 384.5 1276.5 256.5" fill="#8cc63f"/></g></svg>