<svg id="Layer_1" data-name="Layer 1" xmlns="http://www.w3.org/2000/svg" viewBox="0 0 1920 1920"><title>menus</title><path d="M1472,1143.5c96,0,160-53.72,160-120,0-27-11.9-51.94-32-72,20.09-20,32-45,32-72,0-66.28-64-120-160-120-256,0-768,384-1024,384-96,0-160-53.72-160-120,0-27,11.9-51.94,32-72-20.09-20-32-45-32-72,0-66.28,64-120,160-120C704,759.5,1216,1143.5,1472,1143.5Z" fill="none" stroke="#fff" stroke-linecap="round" stroke-linejoin="round" stroke-width="27.71"/><line x1="336" y1="536" x2="336" y2="664" fill="none" stroke="#fff" stroke-linecap="round" stroke-linejoin="round" stroke-width="27.71"/><polyline points="432 665 432 537 528 697 528 537" fill="none" stroke="#fff" stroke-linecap="round" stroke-linejoin="round" stroke-width="27.71"/><polyline points="624 713 624 537 704 537" fill="none" stroke="#fff" stroke-linecap="round" stroke-linejoin="round" stroke-width="27.71"/><line x1="624" y1="601" x2="704" y2="601" fill="none" stroke="#fff" stroke-linecap="round" stroke-linejoin="round" stroke-width="27.71"/><line x1="800" y1="537" x2="800" y2="761" fill="none" stroke="#fff" stroke-linecap="round" stroke-linejoin="round" stroke-width="27.71"/><polyline points="912 809 912 537 1040 809 1040 537" fill="none" stroke="#fff" stroke-linecap="round" stroke-linejoin="round" stroke-width="27.71"/><polyline points="1040 1384 1040 1128 1168 1384 1168 1176" fill="none" stroke="#fff" stroke-linecap="round" stroke-linejoin="round" stroke-width="27.71"/><line x1="1152" y1="537" x2="1152" y2="761" fill="none" stroke="#fff" stroke-linecap="round" stroke-linejoin="round" stroke-width="27.71"/><line x1="960" y1="1096" x2="960" y2="1384" fill="none" stroke="#fff" stroke-linecap="round" stroke-linejoin="round" stroke-width="27.71"/><line x1="1312" y1="537" x2="1312" y2="697" fill="none" stroke="#fff" stroke-linecap="round" stroke-linejoin="round" stroke-width="27.71"/><line x1="1248" y1="537" x2="1376" y2="537" fill="none" stroke="#fff" stroke-linecap="round" stroke-linejoin="round" stroke-width="27.71"/><line x1="1472" y1="537" x2="1472" y2="665" fill="none" stroke="#fff" stroke-linecap="round" stroke-linejoin="round" stroke-width="27.71"/><line x1="1472" y1="665" x2="1568" y2="665" fill="none" stroke="#fff" stroke-linecap="round" stroke-linejoin="round" stroke-width="27.71"/><line x1="1472" y1="537" x2="1568" y2="537" fill="none" stroke="#fff" stroke-linecap="round" stroke-linejoin="round" stroke-width="27.71"/><line x1="1472" y1="601" x2="1568" y2="601" fill="none" stroke="#fff" stroke-linecap="round" stroke-linejoin="round" stroke-width="27.71"/><line x1="1248" y1="1224" x2="1248" y2="1384" fill="none" stroke="#fff" stroke-linecap="round" stroke-linejoin="round" stroke-width="27.71"/><line x1="1248" y1="1384" x2="1328" y2="1384" fill="none" stroke="#fff" stroke-linecap="round" stroke-linejoin="round" stroke-width="27.71"/><line x1="1248" y1="1224" x2="1328" y2="1224" fill="none" stroke="#fff" stroke-linecap="round" stroke-linejoin="round" stroke-width="27.71"/><line x1="1248" y1="1304" x2="1328" y2="1304" fill="none" stroke="#fff" stroke-linecap="round" stroke-linejoin="round" stroke-width="27.71"/><line x1="324" y1="1240" x2="324" y2="1384" fill="none" stroke="#fff" stroke-linecap="round" stroke-linejoin="round" stroke-width="27.71"/><line x1="420" y1="1240" x2="420" y2="1384" fill="none" stroke="#fff" stroke-linecap="round" stroke-linejoin="round" stroke-width="27.71"/><line x1="324" y1="1304" x2="420" y2="1304" fill="none" stroke="#fff" stroke-linecap="round" stroke-linejoin="round" stroke-width="27.71"/><polyline points="480 1384 528 1240 576 1384" fill="none" stroke="#fff" stroke-linecap="round" stroke-linejoin="round" stroke-width="27.71"/><line x1="496" y1="1352" x2="560" y2="1352" fill="none" stroke="#fff" stroke-linecap="round" stroke-linejoin="round" stroke-width="27.71"/><path d="M640,1384V1208h32s64,0,64,64-64,64-64,64H640" fill="none" stroke="#fff" stroke-linecap="round" stroke-linejoin="round" stroke-width="27.71"/><path d="M800,1384V1128h32s64,0,64,64-64,64-64,64H800" fill="none" stroke="#fff" stroke-linecap="round" stroke-linejoin="round" stroke-width="27.71"/><path d="M1588,1260a36,36,0,0,0-72,0c0,36,72,52,72,88a36,36,0,0,1-72,0" fill="none" stroke="#fff" stroke-linecap="round" stroke-linejoin="round" stroke-width="27.71"/><path d="M1464,1260a36,36,0,0,0-72,0c0,36,72,52,72,88a36,36,0,0,1-72,0" fill="none" stroke="#fff" stroke-linecap="round" stroke-linejoin="round" stroke-width="27.71"/></svg>